<?xml version="1.0" ?><svg height="354.33069" id="svg4942" version="1.1" width="354.33069" xmlns="http://www.w3.org/2000/svg" xmlns:cc="http://creativecommons.org/ns#" xmlns:dc="http://purl.org/dc/elements/1.1/" xmlns:inkscape="http://www.inkscape.org/namespaces/inkscape" xmlns:rdf="http://www.w3.org/1999/02/22-rdf-syntax-ns#" xmlns:sodipodi="http://sodipodi.sourceforge.net/DTD/sodipodi-0.dtd" xmlns:svg="http://www.w3.org/2000/svg" xmlns:xlink="http://www.w3.org/1999/xlink"><defs id="defs3"><linearGradient gradientTransform="translate(20.815456,0)" gradientUnits="userSpaceOnUse" id="linearGradient5298" x1="110.95099" x2="106.04807" xlink:href="#linearGradient5253" y1="1142.3993" y2="1150.3993"/><linearGradient id="linearGradient5253"><stop id="stop5255" offset="0" style="stop-color:#ff1215;stop-opacity:1"/><stop id="stop5257" offset="1" style="stop-color:#e913af;stop-opacity:1"/></linearGradient></defs><g id="layer1" transform="translate(0,-698.03148)"><g id="g15064" transform="matrix(10.609174,0,0,10.609174,-1173.3357,-3394.1369)"><path d="m 133.74506,398.43668 c -0.25109,0.031 -0.4552,0.2789 -0.4375,0.5313 l 0,1.9687 c -0.0208,0.2837 0.26149,0.5235 0.53512,0.5246 0.17613,0 0.27579,0 0.46833,6e-4 0.25675,-0.019 0.50672,-0.2598 0.4965,-0.5252 l 0,-1.9687 c 0.0208,-0.2942 -0.27002,-0.5689 -0.5625,-0.5313 -0.33222,0 -0.33307,0 -0.5,0 z" id="path5685" style="font-size:medium;font-style:normal;font-variant:normal;font-weight:normal;font-stretch:normal;text-indent:0;text-align:start;text-decoration:none;line-height:normal;letter-spacing:normal;word-spacing:normal;text-transform:none;direction:ltr;block-progression:tb;writing-mode:lr-tb;text-anchor:start;baseline-shift:baseline;color:#000000;fill:#666666;fill-opacity:1;stroke:none;stroke-width:1px;marker:none;visibility:visible;display:inline;overflow:visible;enable-background:accumulate;font-family:Sans;-inkscape-font-specification:Sans"/><path d="m 133.74506,398.43668 c -0.25109,0.031 -0.4552,0.2789 -0.4375,0.5313 l 0,0.8086 c -0.0208,0.2837 0.26149,0.5235 0.53512,0.5246 0.17613,0 0.27579,0 0.46833,6e-4 0.25675,-0.019 0.50672,-0.2598 0.4965,-0.5252 l 0,-0.8086 c 0.0208,-0.2942 -0.27002,-0.5689 -0.5625,-0.5313 -0.33222,0 -0.33307,0 -0.5,0 z" id="path5687" style="font-size:medium;font-style:normal;font-variant:normal;font-weight:normal;font-stretch:normal;text-indent:0;text-align:start;text-decoration:none;line-height:normal;letter-spacing:normal;word-spacing:normal;text-transform:none;direction:ltr;block-progression:tb;writing-mode:lr-tb;text-anchor:start;baseline-shift:baseline;color:#000000;fill:#999999;fill-opacity:1;stroke:none;stroke-width:1px;marker:none;visibility:visible;display:inline;overflow:visible;enable-background:accumulate;font-family:Sans;-inkscape-font-specification:Sans"/><path d="m 133.71381,403.44948 a 0.50005,0.50005 0 0 0 -0.4375,0.5313 l 0,3 a 0.50005,0.50005 0 1 0 1,0 l 0,-3 a 0.50005,0.50005 0 0 0 -0.5625,-0.5313 z" id="path5689" style="font-size:medium;font-style:normal;font-variant:normal;font-weight:normal;font-stretch:normal;text-indent:0;text-align:start;text-decoration:none;line-height:normal;letter-spacing:normal;word-spacing:normal;text-transform:none;direction:ltr;block-progression:tb;writing-mode:lr-tb;text-anchor:start;baseline-shift:baseline;color:#000000;fill:#666666;fill-opacity:1;stroke:none;stroke-width:1px;marker:none;visibility:visible;display:inline;overflow:visible;enable-background:accumulate;font-family:Sans;-inkscape-font-specification:Sans"/><path d="m 133.71381,403.44948 c -0.25111,0.031 -0.45522,0.2789 -0.4375,0.5313 l 0,1.25 c -0.004,0.2642 0.23582,0.5071 0.5,0.5071 0.26418,0 0.50374,-0.2429 0.5,-0.5071 l 0,-1.25 c 0.0208,-0.2942 -0.27,-0.5689 -0.5625,-0.5313 z" id="path5691" style="font-size:medium;font-style:normal;font-variant:normal;font-weight:normal;font-stretch:normal;text-indent:0;text-align:start;text-decoration:none;line-height:normal;letter-spacing:normal;word-spacing:normal;text-transform:none;direction:ltr;block-progression:tb;writing-mode:lr-tb;text-anchor:start;baseline-shift:baseline;color:#000000;fill:#999999;fill-opacity:1;stroke:none;stroke-width:1px;marker:none;visibility:visible;display:inline;overflow:visible;enable-background:accumulate;font-family:Sans;-inkscape-font-specification:Sans"/><path d="m 126.55756,389.06168 c -0.34499,0 -0.67031,0.039 -1,0.062 -0.84992,0.024 -1.5285,0.062 -2.03125,0.1875 -0.9848,0.2452 -1.08682,0.4521 -1.21875,2.2813 -0.11673,1.6186 -0.34974,2.1455 -1.40625,3.1875 -0.16493,0.1626 -0.2924,0.3083 -0.40625,0.4375 -0.0113,0.013 -0.0204,0.019 -0.0312,0.031 -0.01,0.011 -0.0214,0.02 -0.0312,0.031 -0.13711,0.1626 -0.2317,0.3167 -0.3125,0.4687 -0.0931,0.1751 -0.18993,0.338 -0.25,0.5625 -0.003,0.01 0.002,0.022 0,0.031 -0.0538,0.2031 -0.0625,0.4046 -0.0625,0.625 l 0,1.4062 c -0.0332,2.2591 -0.0336,5.8641 0,8.125 l 0,1.4063 c 0,0.1871 0.0233,0.3549 0.0625,0.5312 0.002,0.01 -0.002,0.021 0,0.031 0.001,0.01 -0.002,0.088 0,0.094 0.0391,0.148 0.10488,0.2527 0.15625,0.375 0.01,0.021 0.0211,0.042 0.0312,0.062 0.0564,0.1237 0.13316,0.2542 0.21875,0.375 0.0566,0.079 0.12243,0.1464 0.1875,0.2188 0.0165,0.019 0.0137,0.043 0.0312,0.062 0.11445,0.1292 0.24101,0.2755 0.40625,0.4375 1.04624,1.0256 1.29113,1.567 1.40625,3.1562 0.10444,1.4419 0.19197,1.8575 0.625,2.0938 0.0912,0.1096 0.23199,0.183 0.375,0.1875 0.0741,0.011 0.14469,0.021 0.21875,0.031 0.31288,0.076 0.71025,0.1241 1.28125,0.1875 0.0893,0.016 0.97074,0.036 1.8125,0.031 0.21765,0 0.23445,0 0.46875,0 0.4892,-0.01 0.98214,-0.025 1.46875,-0.062 0.63785,-0.027 1.19577,-0.064 1.53125,-0.1563 0.0723,-0.01 0.14648,-0.02 0.21875,-0.031 0.10726,0 0.19757,-0.058 0.28125,-0.125 0.0418,-0.033 0.0953,-0.05 0.125,-0.094 0.34069,-0.2123 0.4581,-0.5458 0.53125,-1.4375 0.0517,-0.6302 0.0809,-1.0816 0.125,-1.4062 0.0441,-0.3246 0.0972,-0.5331 0.15625,-0.7188 0.16801,-0.5283 0.6348,-1.2383 1.03125,-1.5625 0.49275,-0.4029 0.771,-0.6766 0.9375,-1 0.0973,-0.1888 0.13934,-0.3712 0.1875,-0.5937 0.0636,-0.2225 0.125,-0.4469 0.125,-0.6875 l 0,-1.875 c 0.004,-0.8757 0,-2.0226 0,-3.5938 0,-0.3718 2.5e-4,-0.7395 5.6e-4,-1.0958 4e-5,-0.048 9e-5,-0.096 1.3e-4,-0.1436 9.5e-4,-1.0019 0.002,-1.9045 1e-5,-2.5412 -2e-4,-0.057 -4.4e-4,-0.1121 -7e-4,-0.1648 l 0,-1.5233 c 0,-0.2068 -0.0458,-0.4029 -0.0937,-0.5938 -0.0486,-0.2885 -0.10837,-0.4731 -0.21875,-0.6875 -0.1665,-0.3235 -0.44475,-0.5971 -0.9375,-1 -0.39725,-0.3248 -0.86241,-1.0316 -1.03125,-1.5625 -0.11418,-0.359 -0.16222,-0.7757 -0.28125,-2.1562 -0.0928,-1.0768 -0.24326,-1.3552 -0.8125,-1.5625 -0.66019,-0.2405 -1.18187,-0.2815 -3.1875,-0.3125 -0.0277,-5e-4 -0.0352,3e-4 -0.0625,0 -0.20895,-0.01 -0.42064,-0.032 -0.625,-0.031 z" id="path5693" style="fill:#474747"/><rect height="15.014971" id="rect5711" rx="2.267307" ry="2.267307" style="fill:#878787;fill-opacity:1;stroke:none" width="13.004135" x="120.32839" y="394.97614"/><path d="m 122.32111,394.94628 1.00837,-5.0026 6.97852,0 1.01769,4.7197" id="path5713" style="fill:none;stroke:none"/><path d="m 122.32111,410.05208 1.00837,5.0026 6.97852,0 1.01769,-4.7197" id="path5715" style="fill:none;stroke:none"/><path d="m 122.6224,395.33548 8.47511,0 c 1.01371,0 1.82981,0.7609 1.82981,1.7746 l 0,10.6604 c 0,1.0138 -0.8161,1.8299 -1.82981,1.8299 l -8.57667,0 c -1.01372,0 -1.82981,-0.8161 -1.82981,-1.8299 l 0,-10.5979 c 0,-1.0137 0.91765,-1.8371 1.93137,-1.8371 z" id="path5717" style="fill:#000000;fill-opacity:1;stroke:none"/><rect height="1.4612789" id="rect5719" rx="0.73063946" ry="0.73063946" style="fill:#f9f9f9;fill-opacity:0.15789472;stroke:none" width="10.120466" x="121.75499" y="394.96295"/><g id="g5964" transform="translate(19.457141,-806.97315)"><path d="m 90.6875,173 c 0,0.49188 -0.398746,0.89062 -0.890625,0.89062 -0.491879,0 -0.890625,-0.39874 -0.890625,-0.89062 0,-0.49188 0.398746,-0.89063 0.890625,-0.89063 0.491879,0 0.890625,0.39875 0.890625,0.89063 z" id="path5966" style="fill:#3b85f2;fill-opacity:1;stroke:none" transform="translate(18.605517,1034.5187)"/><path d="m 90.6875,173 c 0,0.49188 -0.398746,0.89062 -0.890625,0.89062 -0.491879,0 -0.890625,-0.39874 -0.890625,-0.89062 0,-0.49188 0.398746,-0.89063 0.890625,-0.89063 0.491879,0 0.890625,0.39875 0.890625,0.89063 z" id="path5968" style="fill:#e94b4c;fill-opacity:1;stroke:none" transform="translate(16.42583,1034.5187)"/><path d="m 90.6875,173 c 0,0.49188 -0.398746,0.89062 -0.890625,0.89062 -0.491879,0 -0.890625,-0.39874 -0.890625,-0.89062 0,-0.49188 0.398746,-0.89063 0.890625,-0.89063 0.491879,0 0.890625,0.39875 0.890625,0.89063 z" id="path5970" style="fill:#ff9200;fill-opacity:1;stroke:none" transform="translate(15.347705,1036.425)"/><path d="m 90.6875,173 c 0,0.49188 -0.398746,0.89062 -0.890625,0.89062 -0.491879,0 -0.890625,-0.39874 -0.890625,-0.89062 0,-0.49188 0.398746,-0.89063 0.890625,-0.89063 0.491879,0 0.890625,0.39875 0.890625,0.89063 z" id="path5972" style="fill:#ff9200;fill-opacity:1;stroke:none" transform="translate(19.80083,1036.3937)"/><path d="m 90.6875,173 c 0,0.49188 -0.398746,0.89062 -0.890625,0.89062 -0.491879,0 -0.890625,-0.39874 -0.890625,-0.89062 0,-0.49188 0.398746,-0.89063 0.890625,-0.89063 0.491879,0 0.890625,0.39875 0.890625,0.89063 z" id="path5974" style="fill:#49ff24;fill-opacity:1;stroke:none" transform="translate(18.64458,1038.3468)"/><path d="m 90.6875,173 c 0,0.49188 -0.398746,0.89062 -0.890625,0.89062 -0.491879,0 -0.890625,-0.39874 -0.890625,-0.89062 0,-0.49188 0.398746,-0.89063 0.890625,-0.89063 0.491879,0 0.890625,0.39875 0.890625,0.89063 z" id="path5976" style="fill:#aad62f;fill-opacity:1;stroke:none" transform="translate(16.472705,1038.3312)"/><path d="m 90.6875,173 c 0,0.49188 -0.398746,0.89062 -0.890625,0.89062 -0.491879,0 -0.890625,-0.39874 -0.890625,-0.89062 0,-0.49188 0.398746,-0.89063 0.890625,-0.89063 0.491879,0 0.890625,0.39875 0.890625,0.89063 z" id="path5978" style="fill:#f9f9f9;fill-opacity:1;stroke:none" transform="matrix(0.85964912,0,0,0.85964912,30.117669,1056.9327)"/><path d="m 90.6875,173 c 0,0.49188 -0.398746,0.89062 -0.890625,0.89062 -0.491879,0 -0.890625,-0.39874 -0.890625,-0.89062 0,-0.49188 0.398746,-0.89063 0.890625,-0.89063 0.491879,0 0.890625,0.39875 0.890625,0.89063 z" id="path5980" style="fill:#f9f9f9;fill-opacity:1;stroke:none" transform="matrix(0.85964912,0,0,0.85964912,30.117669,1064.5108)"/><path d="m 90.6875,173 c 0,0.49188 -0.398746,0.89062 -0.890625,0.89062 -0.491879,0 -0.890625,-0.39874 -0.890625,-0.89062 0,-0.49188 0.398746,-0.89063 0.890625,-0.89063 0.491879,0 0.890625,0.39875 0.890625,0.89063 z" id="path5982" style="fill:#82fc66;fill-opacity:1;stroke:none" transform="matrix(0.74800069,0,0,0.74800069,43.189114,1078.2356)"/><path d="m 90.6875,173 c 0,0.49188 -0.398746,0.89062 -0.890625,0.89062 -0.491879,0 -0.890625,-0.39874 -0.890625,-0.89062 0,-0.49188 0.398746,-0.89063 0.890625,-0.89063 0.491879,0 0.890625,0.39875 0.890625,0.89063 z" id="path5984" style="fill:#cdfa6a;fill-opacity:1;stroke:none" transform="matrix(0.74800069,0,0,0.74800069,37.178706,1078.2356)"/><path d="m 90.6875,173 c 0,0.49188 -0.398746,0.89062 -0.890625,0.89062 -0.491879,0 -0.890625,-0.39874 -0.890625,-0.89062 0,-0.49188 0.398746,-0.89063 0.890625,-0.89063 0.491879,0 0.890625,0.39875 0.890625,0.89063 z" id="path5986" style="fill:#e94b4c;fill-opacity:1;stroke:none" transform="matrix(0.74800069,0,0,0.74800069,37.178706,1081.7932)"/><path d="m 90.6875,173 c 0,0.49188 -0.398746,0.89062 -0.890625,0.89062 -0.491879,0 -0.890625,-0.39874 -0.890625,-0.89062 0,-0.49188 0.398746,-0.89063 0.890625,-0.89063 0.491879,0 0.890625,0.39875 0.890625,0.89063 z" id="path5988" style="fill:#3b85f2;fill-opacity:1;stroke:none" transform="matrix(0.74800069,0,0,0.74800069,43.122822,1081.7932)"/><path d="m 90.6875,173 c 0,0.49188 -0.398746,0.89062 -0.890625,0.89062 -0.491879,0 -0.890625,-0.39874 -0.890625,-0.89062 0,-0.49188 0.398746,-0.89063 0.890625,-0.89063 0.491879,0 0.890625,0.39875 0.890625,0.89063 z" id="path5990" style="fill:#ffffff;fill-opacity:1;stroke:none" transform="matrix(1.1666667,0,0,1.1666667,2.5924967,1007.615)"/></g><path d="m 122.70131,395.64468 c -0.95287,0 -1.73309,0.7802 -1.73309,1.733 l 0,10.238 c 0,0.4618 0.17584,0.896 0.46999,1.2044 l 10.78093,-12.6173 c -0.31416,-0.3453 -0.78671,-0.5581 -1.29247,-0.5581 z" id="path5913" style="fill:#ffffff;fill-opacity:0.18431373;stroke:none"/></g></g></svg>