<?xml version="1.0" ?><!DOCTYPE svg  PUBLIC '-//W3C//DTD SVG 1.1//EN'  'http://www.w3.org/Graphics/SVG/1.1/DTD/svg11.dtd'><svg enable-background="new 131.226 156.808 434.812 387.655" height="387.655px" id="Layer_1" version="1.1" viewBox="131.226 156.808 434.812 387.655" width="434.812px" xml:space="preserve" xmlns="http://www.w3.org/2000/svg" xmlns:xlink="http://www.w3.org/1999/xlink"><path d="M522.97,306.932H317.369c-23.786,0-43.069,19.283-43.069,43.069c0,23.785,19.283,43.069,43.069,43.069  H522.97c23.786,0,43.068-19.284,43.068-43.069C566.038,326.215,546.756,306.932,522.97,306.932z" fill="#333333"/><circle cx="182.569" cy="349.999" fill="#333333" r="50.206"/><path d="M522.97,163.81H317.369c-23.786,0-43.069,19.283-43.069,43.069c0,23.785,19.283,43.069,43.069,43.069H522.97  c23.786,0,43.068-19.284,43.068-43.069C566.038,183.093,546.756,163.81,522.97,163.81z" fill="#333333"/><circle cx="182.569" cy="206.877" fill="#333333" r="50.069"/><path d="M522.97,450.053H317.369c-23.786,0-43.069,19.283-43.069,43.069c0,23.785,19.283,43.069,43.069,43.069  H522.97c23.786,0,43.068-19.284,43.068-43.069C566.038,469.336,546.756,450.053,522.97,450.053z" fill="#333333"/><circle cx="182.569" cy="493.12" fill="#333333" r="51.343"/></svg>