<?xml version="1.0" ?><!DOCTYPE svg  PUBLIC '-//W3C//DTD SVG 1.1//EN'  'http://www.w3.org/Graphics/SVG/1.1/DTD/svg11.dtd'><svg enable-background="new 0 0 476.181 477.379" height="477.379px" id="Layer_1" version="1.1" viewBox="0 0 476.181 477.379" width="476.181px" xml:space="preserve" xmlns="http://www.w3.org/2000/svg" xmlns:xlink="http://www.w3.org/1999/xlink"><path d="M289.902,214.93c0.5-1.298,0.975-2.606,1.433-3.92c0.054-0.156,0.104-0.313,0.157-0.469  c0.374-1.088,0.734-2.181,1.081-3.279c0.12-0.386,0.235-0.775,0.354-1.163c0.093-0.304,0.178-0.61,0.27-0.915  c0.034-0.117,0.075-0.233,0.109-0.351c0.064-0.218,0.121-0.437,0.186-0.655c0.068-0.242,0.144-0.482,0.212-0.724  c0.122-0.433,0.24-0.867,0.356-1.302c0.048-0.176,0.1-0.352,0.146-0.528c0.061-0.216,0.122-0.432,0.179-0.65  c1.137-4.296,2.057-8.638,2.742-13.016h18.124h0.015c11.164,0,20.213-9.049,20.213-20.213c0-11.162-9.049-20.213-20.213-20.213  h-0.015h-18.074v-0.016c-1.21-7.736-3.143-15.362-5.756-22.81c-0.029-0.083-0.062-0.165-0.09-0.248  c-0.31-0.873-0.62-1.744-0.947-2.612c-0.155-0.417-0.304-0.835-0.463-1.25l15.688-9.058c9.669-5.582,12.98-17.943,7.398-27.611  c-5.581-9.667-17.943-12.98-27.611-7.398l-15.681,9.053l-0.026-0.046c-0.471-0.583-0.959-1.151-1.44-1.726  c-0.229-0.273-0.454-0.549-0.686-0.82c-0.138-0.162-0.271-0.329-0.408-0.49c-0.283-0.331-0.574-0.653-0.859-0.981  c-0.36-0.411-0.716-0.827-1.082-1.233c-0.957-1.072-1.941-2.115-2.93-3.152c-0.131-0.136-0.256-0.278-0.386-0.414  c-3.747-3.896-7.716-7.551-11.904-10.931l-0.022-0.013c-0.004-0.003-0.008-0.007-0.013-0.01l9.055-15.682  c5.581-9.667,2.271-22.029-7.397-27.611c-9.667-5.581-22.03-2.269-27.611,7.398l-9.068,15.706h-0.001l-0.002-0.001  c-4.12-1.591-8.328-2.949-12.604-4.109c-0.17-0.047-0.339-0.095-0.51-0.141c-0.182-0.048-0.359-0.102-0.542-0.15  c-0.693-0.186-1.392-0.358-2.089-0.532c-0.142-0.036-0.283-0.069-0.427-0.104c-0.039-0.01-0.078-0.021-0.117-0.03  c-0.018-0.004-0.036-0.009-0.055-0.013c-0.02-0.005-0.039-0.009-0.059-0.014c-0.111-0.027-0.226-0.054-0.336-0.081  c-0.325-0.079-0.648-0.162-0.975-0.237c-0.58-0.135-1.161-0.264-1.742-0.391c-0.771-0.169-1.544-0.329-2.317-0.484  c-0.467-0.093-0.934-0.189-1.402-0.277c-1.264-0.238-2.529-0.462-3.799-0.661V20.227v-0.014C187.961,9.049,178.912,0,167.748,0  c-11.162,0-20.213,9.049-20.213,20.213v0.014v18.074h-0.017c-7.742,1.211-15.375,3.146-22.829,5.763  c-0.019,0.007-0.038,0.015-0.057,0.021c-0.931,0.327-1.859,0.661-2.784,1.009c-0.416,0.155-0.835,0.304-1.25,0.463L111.54,29.87  c-5.581-9.668-17.942-12.98-27.611-7.398c-9.666,5.581-12.979,17.943-7.398,27.611l9.054,15.681l-0.046,0.026  c-1.251,1.009-2.479,2.048-3.689,3.107c-1.188,1.031-2.357,2.079-3.506,3.147c-0.006,0.005-0.011,0.01-0.017,0.016  c-0.712,0.663-1.416,1.333-2.112,2.01c-0.076,0.074-0.152,0.149-0.229,0.223c-0.654,0.639-1.302,1.285-1.941,1.937  c-0.107,0.11-0.214,0.22-0.321,0.331c-0.617,0.633-1.229,1.271-1.832,1.917c-0.119,0.127-0.236,0.257-0.354,0.385  c-0.594,0.641-1.184,1.284-1.764,1.937c-0.107,0.119-0.211,0.241-0.316,0.361c-0.591,0.669-1.178,1.34-1.754,2.021  c-0.008,0.009-0.016,0.019-0.023,0.028c-0.637,0.753-1.27,1.511-1.889,2.278l-0.013,0.021c-0.004,0.005-0.007,0.009-0.011,0.014  l-15.682-9.054c-9.668-5.581-22.03-2.27-27.611,7.398c-5.582,9.667-2.27,22.03,7.398,27.611l15.705,9.068c0,0,0,0,0,0.001  l-0.001,0.001c-0.501,1.298-0.975,2.606-1.433,3.92c-0.054,0.156-0.104,0.313-0.157,0.469c-0.374,1.088-0.735,2.181-1.081,3.279  c-0.121,0.386-0.236,0.775-0.354,1.163c-0.093,0.304-0.178,0.61-0.269,0.915c-0.035,0.117-0.076,0.233-0.11,0.351  c-0.064,0.218-0.121,0.437-0.185,0.655c-0.069,0.242-0.144,0.482-0.212,0.724c-0.122,0.433-0.241,0.868-0.357,1.302  c-0.048,0.176-0.099,0.352-0.146,0.527c-0.061,0.217-0.122,0.433-0.179,0.65c-1.137,4.296-2.057,8.638-2.742,13.016H20.228h-0.015  C9.049,147.519,0,156.568,0,167.732c0,11.162,9.049,20.213,20.213,20.213h0.015h18.074v0.016c1.21,7.736,3.143,15.362,5.756,22.81  c0.029,0.083,0.062,0.165,0.09,0.248c0.309,0.873,0.62,1.744,0.947,2.612c0.155,0.417,0.304,0.835,0.463,1.25l-15.688,9.058  c-9.668,5.582-12.98,17.943-7.398,27.611c5.581,9.666,17.943,12.979,27.611,7.398l15.681-9.055l0.026,0.047  c0.471,0.584,0.959,1.152,1.441,1.725c0.229,0.273,0.454,0.549,0.685,0.82c0.138,0.162,0.271,0.328,0.409,0.49  c0.283,0.332,0.574,0.654,0.859,0.982c0.36,0.409,0.716,0.825,1.082,1.231c0.957,1.072,1.941,2.115,2.93,3.151  c0.13,0.138,0.255,0.279,0.385,0.414c3.747,3.896,7.716,7.552,11.905,10.933l0.022,0.015c0.004,0.002,0.008,0.006,0.013,0.01  l-9.055,15.682c-5.581,9.668-2.27,22.029,7.398,27.611c9.667,5.582,22.03,2.27,27.611-7.398l9.068-15.705h0.001h0.002  c4.12,1.592,8.328,2.949,12.604,4.109c0.17,0.047,0.339,0.096,0.509,0.141c0.182,0.049,0.36,0.104,0.542,0.15  c0.694,0.186,1.392,0.356,2.089,0.53c0.142,0.037,0.284,0.07,0.427,0.105c0.039,0.01,0.078,0.02,0.117,0.029  c0.018,0.004,0.036,0.01,0.055,0.014c0.02,0.004,0.039,0.01,0.059,0.014c0.111,0.027,0.225,0.056,0.336,0.082  c0.325,0.078,0.648,0.16,0.974,0.236c0.58,0.135,1.161,0.264,1.742,0.391c0.771,0.17,1.544,0.33,2.317,0.484  c0.467,0.094,0.934,0.189,1.402,0.277c1.264,0.237,2.529,0.463,3.799,0.659v18.125v0.015c0,11.164,9.049,20.213,20.213,20.213  c11.162,0,20.213-9.049,20.213-20.213v-0.015v-18.073h0.017c7.742-1.211,15.374-3.146,22.828-5.763  c0.021-0.008,0.042-0.016,0.062-0.022c0.93-0.326,1.855-0.66,2.778-1.008c0.416-0.154,0.835-0.304,1.25-0.463l9.058,15.688  c5.581,9.668,17.942,12.98,27.611,7.398c9.666-5.582,12.979-17.943,7.398-27.611l-9.055-15.683l0.046-0.024  c1.251-1.01,2.479-2.049,3.689-3.106c1.188-1.031,2.356-2.078,3.506-3.146c0.006-0.006,0.011-0.01,0.017-0.016  c0.713-0.662,1.416-1.332,2.112-2.01c0.076-0.074,0.152-0.148,0.229-0.224c0.653-0.642,1.302-1.285,1.94-1.938  c0.107-0.108,0.214-0.221,0.321-0.33c0.617-0.633,1.229-1.271,1.832-1.918c0.119-0.127,0.236-0.256,0.354-0.385  c0.595-0.641,1.185-1.283,1.765-1.936c0.106-0.119,0.211-0.24,0.315-0.361c0.592-0.668,1.179-1.34,1.754-2.021  c0.009-0.008,0.017-0.018,0.023-0.026c0.637-0.754,1.27-1.51,1.889-2.276l0.014-0.021c0.004-0.006,0.007-0.01,0.011-0.014  l15.682,9.053c9.668,5.582,22.03,2.27,27.611-7.398c5.582-9.666,2.27-22.029-7.398-27.61l-15.704-9.068  C289.9,214.932,289.9,214.932,289.902,214.93L289.902,214.93z M167.738,265.705c-54.104,0-97.966-43.86-97.966-97.966  c0-54.104,43.861-97.965,97.966-97.965s97.966,43.861,97.966,97.965S221.843,265.705,167.738,265.705z" fill="#333333"/><path d="M457.746,338.126h-14.769c-2.235-11.223-6.555-21.694-12.541-30.991l10.66-10.662  c7.2-7.199,7.2-18.871,0-26.07c-7.199-7.2-18.872-7.2-26.071-0.002l-10.447,10.449c-9.205-6.146-19.604-10.636-30.777-13.058  l-0.001-15.071c0.001-10.185-8.253-18.438-18.435-18.437c-7.002-0.001-13.091,3.9-16.213,9.648  c-1.419,2.611-2.226,5.605-2.226,8.787v14.766c-11.223,2.236-21.695,6.557-30.993,12.543l-10.66-10.66  c-7.198-7.199-18.872-7.199-26.07,0c-7.2,7.199-7.2,18.873-0.001,26.072l10.447,10.447c-6.145,9.205-10.635,19.604-13.056,30.776  l-15.073,0.002c-10.182-0.002-18.436,8.253-18.435,18.435c-0.001,10.184,8.253,18.438,18.435,18.438h14.769  c2.236,11.223,6.557,21.693,12.542,30.992l-10.66,10.66c-7.2,7.199-7.2,18.873,0,26.072c7.199,7.197,18.872,7.197,26.071,0  l10.448-10.447c9.204,6.143,19.604,10.633,30.776,13.055l0.001,15.074c-0.001,10.182,8.253,18.436,18.435,18.434  c10.184,0.002,18.438-8.252,18.438-18.434v-14.77c11.223-2.236,21.693-6.557,30.992-12.541l10.661,10.658  c7.198,7.201,18.872,7.201,26.07,0c7.2-7.197,7.2-18.871,0.001-26.068l-10.447-10.449c6.144-9.205,10.634-19.605,13.055-30.777  h15.074c10.182,0,18.436-8.254,18.435-18.436C476.182,346.38,467.928,338.126,457.746,338.126z M354.634,415.307  c-32.847,0-59.475-26.629-59.475-59.477c0-32.847,26.628-59.474,59.475-59.474s59.475,26.627,59.475,59.474  C414.108,388.678,387.48,415.307,354.634,415.307z" fill="#333333"/></svg>